<?xml version="1.0" encoding="iso-8859-1"?><svg width="26" height="24" viewBox="0 0 26 24" fill="none" xmlns="http://www.w3.org/2000/svg">
<path d="M19.1858 19C20.5665 19 21.6858 17.8807 21.6858 16.5C21.6858 15.1193 20.5665 14 19.1858 14C17.8051 14 16.6858 15.1193 16.6858 16.5C16.6858 17.8807 17.8051 19 19.1858 19ZM19.1858 19C16.9767 19 15.1858 20.7909 15.1858 23H23.1858C23.1858 20.7909 21.3949 19 19.1858 19ZM10.1858 6.5C10.1858 8.98528 8.17107 11 5.68579 11C3.20051 11 1.18579 8.98528 1.18579 6.5C1.18579 4.01472 3.20051 2 5.68579 2C8.17107 2 10.1858 4.01472 10.1858 6.5ZM1.18579 14H10.1858V23H1.18579V14ZM19.1858 2L24.1858 11H14.1858L19.1858 2Z" stroke="white" stroke-linecap="square"/>
</svg>
