<?xml version="1.0" encoding="iso-8859-1"?><svg width="25" height="31" viewBox="0 0 25 31" fill="none" xmlns="http://www.w3.org/2000/svg">
<path d="M12.5 8C12.1846 8 13.184 8 12.5 8V8Z" fill="#DADADA"/>
<path d="M12.5 8C12.8154 8 11.816 8 12.5 8V8Z" fill="#DADADA"/>
<path d="M1 19V30H12.5M1 19V8H12.5M1 19H12.5M24 19V8H12.5M24 19V30H12.5M24 19H12.5M12.5 8C13.5 3.5 16.7449 -0.499994 19.1858 2.00001C21.658 4.53215 15.3753 7.84411 12.5 8ZM12.5 8C12.1846 8 13.184 8 12.5 8ZM12.5 8V19M12.5 8C11.5 3.5 8.25505 -0.499994 5.81421 2.00001C3.34198 4.53215 9.62471 7.84411 12.5 8ZM12.5 8C12.8154 8 11.816 8 12.5 8ZM12.5 30V19" stroke="white" stroke-linecap="square"/>
</svg>
